<svg width="353" height="114" viewBox="0 0 353 114" fill="none" xmlns="http://www.w3.org/2000/svg">
<path d="M166.26 38.7435H140.354C140.038 39.376 139.722 40.0086 139.248 40.6411C137.037 43.8038 133.403 45.7015 129.454 45.7015C127.085 45.7015 124.715 44.9108 122.82 43.6457L107.971 33.0506L102.6 29.0971L102.126 28.7809C101.494 28.3065 101.336 27.3576 101.652 26.7251C102.126 26.0925 103.074 25.9344 103.706 26.2507L111.13 31.1529L124.715 40.483C125.347 40.9574 126.137 41.2737 126.769 41.5899C127.559 41.9062 128.506 42.0643 129.454 42.0643C132.14 42.0643 134.667 40.7992 136.247 38.4272C138.774 34.6319 137.826 29.4134 134.035 26.8832L96.9129 1.42323C95.4912 0.474406 93.9116 0 92.1739 0H64.2137V27.832H81.1162L118.396 53.9246C119.818 54.8734 121.398 55.3478 123.135 55.3478H166.103C170.684 55.3478 174.475 51.5525 174.475 46.9666C174.475 42.3806 170.842 38.7435 166.26 38.7435Z" transform="translate(57.1099 5.82959)" fill="white"/>
<path d="M25.0288 85.158C25.0288 86.4016 26.2403 87.0234 28.6633 87.0234V89.3864H16.6446V87.0234C18.4894 87.0234 19.4118 86.4016 19.4118 85.158V75.9551C19.4118 74.214 19.1364 72.9704 18.5857 72.2242C18.0351 71.478 17.2916 71.1049 16.3555 71.1049C15.6396 71.1049 14.9237 71.2431 14.2078 71.5195C13.5194 71.7958 12.8586 72.1827 12.2253 72.6802C11.592 73.1776 11.0138 73.7718 10.4906 74.4627C9.96746 75.126 9.54068 75.8445 9.21027 76.6184V85.158C9.21027 86.4016 10.1327 87.0234 11.9775 87.0234V89.3864H0V87.0234C2.36796 87.0234 3.55194 86.4016 3.55194 85.158V72.5144C3.55194 71.2707 2.36796 70.6489 0 70.6489V68.286H9.21027V72.5144C10.2566 71.1602 11.5645 70.0547 13.1339 69.198C14.7034 68.3136 16.4931 67.8715 18.5031 67.8715C20.5682 67.8715 22.1652 68.3551 23.2941 69.3224C24.4506 70.2896 25.0288 71.8649 25.0288 74.0482V85.158Z" transform="translate(57.1099 5.82959)" fill="white"/>
<path d="M54.7447 78.7325C54.7447 82.3529 53.7534 85.158 51.771 87.1478C49.7885 89.11 46.9111 90.0911 43.1389 90.0911C41.6521 90.0911 40.234 89.9115 38.8849 89.5522C37.5357 89.2205 36.3517 88.6402 35.3329 87.8111C34.3417 86.9544 33.5432 85.8351 32.9374 84.4533C32.3317 83.0438 32.0288 81.3027 32.0288 79.23C32.0288 75.4438 32.9787 72.542 34.8786 70.5245C36.7785 68.4795 39.6834 67.4569 43.5932 67.4569C45.1076 67.4569 46.5394 67.6504 47.8886 68.0373C49.2653 68.3966 50.4493 69.0184 51.4406 69.9027C52.4593 70.7595 53.2578 71.9064 53.836 73.3435C54.4418 74.7805 54.7447 76.5769 54.7447 78.7325ZM43.5519 70.1929C41.4869 70.1929 39.9862 70.87 39.0501 72.2242C38.1139 73.5507 37.6458 75.4715 37.6458 77.9864C37.6458 79.8656 37.7697 81.4133 38.0175 82.6293C38.2653 83.8453 38.6233 84.8125 39.0914 85.5311C39.587 86.222 40.1652 86.7056 40.826 86.982C41.5144 87.2584 42.2991 87.3965 43.1802 87.3965C45.3554 87.3965 46.8836 86.6642 47.7647 85.1995C48.6458 83.7347 49.0864 81.662 49.0864 78.9813C49.0864 77.2402 48.9487 75.8031 48.6733 74.67C48.4255 73.5369 48.0538 72.6387 47.5582 71.9754C47.0626 71.3122 46.4706 70.8562 45.7822 70.6075C45.1214 70.3311 44.378 70.1929 43.5519 70.1929Z" transform="translate(57.1099 5.82959)" fill="white"/>
<path d="M82.8269 85.158C82.8269 86.4016 84.0384 87.0234 86.4614 87.0234V89.3864H74.4427V87.0234C76.2875 87.0234 77.2099 86.4016 77.2099 85.158V75.9551C77.2099 74.214 76.9345 72.9704 76.3838 72.2242C75.8332 71.478 75.0897 71.1049 74.1536 71.1049C73.4377 71.1049 72.7218 71.2431 72.0059 71.5195C71.3175 71.7958 70.6567 72.1827 70.0234 72.6802C69.3901 73.1776 68.8119 73.7718 68.2887 74.4627C67.7656 75.126 67.3388 75.8445 67.0084 76.6184V85.158C67.0084 86.4016 67.9308 87.0234 69.7756 87.0234V89.3864H57.7981V87.0234C60.1661 87.0234 61.35 86.4016 61.35 85.158V72.5144C61.35 71.2707 60.1661 70.6489 57.7981 70.6489V68.286H67.0084V72.5144C68.0547 71.1602 69.3626 70.0547 70.932 69.198C72.5015 68.3136 74.2912 67.8715 76.3012 67.8715C78.3663 67.8715 79.9633 68.3551 81.0922 69.3224C82.2487 70.2896 82.8269 71.8649 82.8269 74.0482V85.158Z" transform="translate(57.1099 5.82959)" fill="white"/>
<path d="M98.8901 81.9245L89.1661 79.1471V75.9136L98.8901 77.9864V81.9245Z" transform="translate(57.1099 5.82959)" fill="white"/>
<path d="M110.434 74.7944C111.122 73.3849 112.168 72.3485 113.573 71.6853C114.977 70.9944 116.67 70.6489 118.653 70.6489C120.002 70.6489 121.282 70.8562 122.494 71.2707C123.705 71.6853 124.765 72.3485 125.674 73.2606C126.61 74.1726 127.34 75.3471 127.863 76.7842C128.414 78.1936 128.689 79.9071 128.689 81.9245C128.689 83.9973 128.386 85.7522 127.781 87.1893C127.175 88.6264 126.362 89.8009 125.344 90.7129C124.352 91.5973 123.21 92.2467 121.916 92.6613C120.622 93.0758 119.286 93.2831 117.909 93.2831C116.56 93.2831 115.321 93.1035 114.192 92.7442C113.091 92.3849 112.224 91.8736 111.59 91.2104V98.0918C111.59 101.335 113.091 99.9573 116.092 99.9573V102.279H102.339V99.9573C104.734 99.9573 105.932 99.3355 105.932 98.0918V75.6649C105.932 74.3936 104.734 73.758 102.339 73.758V71.3951H110.103L110.434 74.7944ZM116.918 73.6751C115.844 73.6751 114.936 73.8824 114.192 74.2969C113.449 74.7115 112.843 75.2918 112.375 76.038C111.934 76.7565 111.618 77.6409 111.425 78.6911C111.232 79.7136 111.136 80.8467 111.136 82.0904C111.136 83.334 111.232 84.4809 111.425 85.5311C111.618 86.5536 111.934 87.438 112.375 88.1842C112.843 88.9027 113.449 89.4693 114.192 89.8838C114.936 90.2984 115.844 90.5056 116.918 90.5056C117.992 90.5056 118.914 90.2984 119.685 89.8838C120.456 89.4693 121.09 88.9027 121.585 88.1842C122.081 87.438 122.439 86.5536 122.659 85.5311C122.879 84.4809 122.99 83.334 122.99 82.0904C122.99 80.8467 122.879 79.7136 122.659 78.6911C122.439 77.6409 122.081 76.7565 121.585 76.038C121.09 75.2918 120.456 74.7115 119.685 74.2969C118.914 73.8824 117.992 73.6751 116.918 73.6751Z" transform="translate(57.1099 5.82959)" fill="white"/>
<path d="M141.021 72.2242C141.819 70.6489 142.783 69.5158 143.912 68.8249C145.068 68.1064 146.307 67.7471 147.629 67.7471C148.235 67.7471 148.854 67.8438 149.487 68.0373C150.148 68.2307 150.74 68.5347 151.263 68.9493C151.787 69.3638 152.213 69.9027 152.544 70.566C152.874 71.2016 153.039 71.9616 153.039 72.846C153.039 73.8962 152.75 74.7667 152.172 75.4576C151.621 76.1209 150.864 76.4525 149.9 76.4525C148.937 76.4525 148.207 76.2038 147.711 75.7064C147.216 75.1813 146.968 74.5595 146.968 73.8409C146.968 73.15 147.188 72.5696 147.629 72.0998C148.097 71.63 148.799 71.3813 149.735 71.3536C149.515 70.9391 149.157 70.6213 148.661 70.4002C148.166 70.1791 147.643 70.0685 147.092 70.0685C146.596 70.0685 146.059 70.1929 145.481 70.4416C144.93 70.6904 144.38 71.0635 143.829 71.5609C143.306 72.0584 142.797 72.7078 142.301 73.5093C141.805 74.2831 141.379 75.2089 141.021 76.2867V85.158C141.021 85.7936 141.365 86.2635 142.053 86.5675C142.741 86.8715 143.747 87.0234 145.068 87.0234V89.3864H131.81V87.0234C134.178 87.0234 135.362 86.4016 135.362 85.158V72.5144C135.362 71.2707 134.178 70.6489 131.81 70.6489V68.286H141.021V72.2242Z" transform="translate(57.1099 5.82959)" fill="white"/>
<path d="M179.134 78.7325C179.134 82.3529 178.142 85.158 176.16 87.1478C174.177 89.11 171.3 90.0911 167.528 90.0911C166.041 90.0911 164.623 89.9115 163.274 89.5522C161.925 89.2205 160.741 88.6402 159.722 87.8111C158.731 86.9544 157.932 85.8351 157.326 84.4533C156.721 83.0438 156.418 81.3027 156.418 79.23C156.418 75.4438 157.368 72.542 159.268 70.5245C161.167 68.4795 164.072 67.4569 167.982 67.4569C169.497 67.4569 170.928 67.6504 172.278 68.0373C173.654 68.3966 174.838 69.0184 175.829 69.9027C176.848 70.7595 177.647 71.9064 178.225 73.3435C178.831 74.7805 179.134 76.5769 179.134 78.7325ZM167.941 70.1929C165.876 70.1929 164.375 70.87 163.439 72.2242C162.503 73.5507 162.035 75.4715 162.035 77.9864C162.035 79.8656 162.159 81.4133 162.406 82.6293C162.654 83.8453 163.012 84.8125 163.48 85.5311C163.976 86.222 164.554 86.7056 165.215 86.982C165.903 87.2584 166.688 87.3965 167.569 87.3965C169.744 87.3965 171.273 86.6642 172.154 85.1995C173.035 83.7347 173.475 81.662 173.475 78.9813C173.475 77.2402 173.338 75.8031 173.062 74.67C172.814 73.5369 172.443 72.6387 171.947 71.9754C171.452 71.3122 170.86 70.8562 170.171 70.6075C169.51 70.3311 168.767 70.1929 167.941 70.1929Z" transform="translate(57.1099 5.82959)" fill="white"/>
<path d="M197.758 71.2707C196.023 71.1049 194.633 70.9944 193.586 70.9391C192.54 70.8562 191.81 70.8147 191.397 70.8147V85.158C191.397 86.4016 193.228 87.0234 196.89 87.0234V89.3864H182.228V87.0234C184.596 87.0234 185.78 86.4016 185.78 85.158V70.8147H182.187V68.8249C182.655 68.7144 183.178 68.6176 183.757 68.5347C184.335 68.4242 184.982 68.3413 185.698 68.286V64.0162C185.698 62.7725 185.877 61.7085 186.235 60.8242C186.62 59.9398 187.157 59.2213 187.845 58.6685C188.534 58.0882 189.374 57.6736 190.365 57.4249C191.356 57.1762 192.457 57.0518 193.669 57.0518C194.77 57.0518 195.775 57.1624 196.684 57.3835C197.62 57.5769 198.419 57.8809 199.079 58.2955C199.74 58.71 200.25 59.2351 200.608 59.8707C200.993 60.5064 201.186 61.2525 201.186 62.1093C201.186 62.9107 200.938 63.6293 200.442 64.2649C199.974 64.8729 199.231 65.1769 198.212 65.1769C197.248 65.1769 196.532 64.942 196.064 64.4722C195.624 63.9747 195.404 63.4082 195.404 62.7725C195.404 62.0816 195.624 61.5289 196.064 61.1144C196.505 60.6998 197.083 60.4511 197.799 60.3682C197.193 59.5944 196.037 59.2075 194.33 59.2075C193.449 59.2075 192.733 59.47 192.182 59.9951C191.631 60.5202 191.356 61.3631 191.356 62.5238V68.286H197.964L197.758 71.2707Z" transform="translate(57.1099 5.82959)" fill="white"/>
<path d="M211.685 85.158C211.63 86.4016 212.828 87.0234 215.278 87.0234V89.3864H202.475V87.0234C204.843 87.0234 206.027 86.4016 206.027 85.158V72.5558C206.027 71.2845 204.843 70.6489 202.475 70.6489V68.286H211.685V85.158ZM212.181 61.3216C212.181 62.2889 211.837 63.1318 211.148 63.8504C210.487 64.5413 209.661 64.8867 208.67 64.8867C208.174 64.8867 207.706 64.79 207.266 64.5965C206.853 64.4031 206.481 64.1544 206.151 63.8504C205.848 63.5187 205.6 63.1456 205.407 62.7311C205.215 62.2889 205.118 61.8191 205.118 61.3216C205.118 60.3267 205.462 59.4976 206.151 58.8344C206.867 58.1435 207.706 57.798 208.67 57.798C209.634 57.798 210.46 58.1435 211.148 58.8344C211.837 59.5253 212.181 60.3544 212.181 61.3216Z" transform="translate(57.1099 5.82959)" fill="white"/>
<path d="M227.699 68.286H233.192L232.985 71.2707C232.214 71.1049 231.388 70.9944 230.507 70.9391C229.653 70.8562 228.717 70.8147 227.699 70.8147V85.2824C227.699 86.526 228.304 87.1478 229.516 87.1478C230.149 87.1478 230.576 86.982 230.796 86.6504C231.044 86.2911 231.168 85.8351 231.168 85.2824V82.878H233.192V84.702C233.192 85.4482 233.109 86.1253 232.944 86.7333C232.806 87.3413 232.531 87.8664 232.118 88.3085C231.732 88.7231 231.209 89.0547 230.548 89.3035C229.888 89.5522 229.048 89.6765 228.029 89.6765C225.881 89.6765 224.339 89.1929 223.403 88.2256C222.495 87.2584 222.04 85.9042 222.04 84.1631V70.8147H218.447V68.8249C219.218 68.7696 219.934 68.6591 220.595 68.4933C221.283 68.3275 221.875 68.0373 222.371 67.6227C222.894 67.2082 223.293 66.6278 223.568 65.8816C223.871 65.1355 224.023 64.1682 224.023 62.9798V62.0678L227.699 61.7776V68.286Z" transform="translate(57.1099 5.82959)" fill="white"/>
</svg>
