<svg width="48" height="48" viewBox="0 0 48 48" fill="none" xmlns="http://www.w3.org/2000/svg">
<path d="M42.6667 0H5.33333C2.4 0 0 2.4 0 5.33333V42.6667C0 45.6027 2.4 48 5.33333 48H42.6667C45.6 48 48 45.6027 48 42.6667V5.33333C48 2.4 45.6 0 42.6667 0ZM23.9573 38.728C32.1147 38.728 38.7253 32.112 38.7253 23.9573C38.7253 23.056 38.6107 22.1867 38.4507 21.3333H42.6667V40.576C42.6667 41.5947 41.84 42.416 40.8187 42.416H7.18133C6.16 42.416 5.33333 41.5947 5.33333 40.576V21.3333H9.464C9.30133 22.1867 9.18667 23.056 9.18667 23.9573C9.18667 32.1147 15.8027 38.728 23.9573 38.728ZM14.728 23.9573C14.728 18.8587 18.8613 14.728 23.96 14.728C29.0587 14.728 33.192 18.8587 33.192 23.9573C33.192 29.056 29.056 33.1893 23.96 33.1893C18.8587 33.1893 14.728 29.056 14.728 23.9573ZM40.8187 13.3333H36.512C35.4933 13.3333 34.6667 12.5013 34.6667 11.488V7.176C34.6667 6.15733 35.4933 5.33333 36.5093 5.33333H40.816C41.84 5.33333 42.6667 6.15733 42.6667 7.176V11.4853C42.6667 12.5013 41.84 13.3333 40.8187 13.3333Z" fill="white"/>
</svg>
