<svg width="48" height="39" viewBox="0 0 48 39" fill="none" xmlns="http://www.w3.org/2000/svg">
<path d="M43.0852 9.70827C43.1061 10.1308 43.1139 10.5586 43.1139 10.9811C43.1139 23.9968 33.2087 39 15.0965 39C9.53217 39 4.35913 37.3698 3.10981e-08 34.5736C0.772174 34.6649 1.55478 34.7119 2.34783 34.7119C6.96522 34.7119 11.2096 33.1364 14.5774 30.4994C10.2704 30.4185 6.6313 27.5754 5.37913 23.6629C5.97913 23.7751 6.59739 23.8351 7.2313 23.8351C8.1313 23.8351 9.00261 23.7177 9.82696 23.4934C5.32174 22.5857 1.92783 18.6079 1.92783 13.8347C1.92783 13.7929 1.92783 13.7538 1.92783 13.7121C3.25565 14.4502 4.77652 14.8937 6.3887 14.9458C3.74609 13.1774 2.00609 10.1673 2.00609 6.74779C2.00609 4.94543 2.4913 3.25261 3.34174 1.79715C8.19652 7.75722 15.4565 11.675 23.64 12.0871C23.473 11.3646 23.387 10.616 23.387 9.84129C23.387 4.4055 27.793 -1.84076e-07 33.2322 -1.84076e-07C36.0652 -1.84076e-07 38.6243 1.19201 40.4217 3.10654C42.6626 2.66312 44.7704 1.8441 46.6748 0.717295C45.9391 3.01525 44.3765 4.94543 42.3443 6.16352C44.3374 5.92356 46.2313 5.39928 48 4.61417C46.68 6.59129 45.0104 8.32323 43.0852 9.70827Z" fill="white"/>
</svg>
